<svg width="105" height="37" viewBox="0 0 105 37" fill="none" xmlns="http://www.w3.org/2000/svg">
<g clip-path="url(#clip0_406_556)">
<mask id="mask0_406_556" style="mask-type:luminance" maskUnits="userSpaceOnUse" x="0" y="0" width="36" height="37">
<path d="M0 0.5H36V36.5H0V0.5Z" fill="white"/>
</mask>
<g mask="url(#mask0_406_556)">
<path fill-rule="evenodd" clip-rule="evenodd" d="M36 0.5H0V36.5H36V0.5ZM20.556 5.6C19.9071 5.20728 19.1631 4.99966 18.4046 4.99966C17.6461 4.99966 16.9021 5.20728 16.2533 5.6L14.79 6.49625C12.3397 7.99325 9.354 8.27675 6.46425 8.55125C5.8095 8.6135 5.15925 8.67575 4.52175 8.75075C4.52175 8.75075 4.50375 10.1345 4.52175 10.7675L4.6785 16.1135C4.81275 20.7133 6.858 25.0745 10.3673 28.244C12.2032 29.9023 14.2148 31.2718 16.4858 32.3518C17.7023 32.9293 19.1453 32.8768 20.3115 32.2115C22.2788 31.0895 23.991 29.7388 25.6462 28.244C29.1555 25.0745 31.2007 20.7133 31.335 16.1135L31.4917 10.7502C31.5097 10.1263 31.4925 8.75075 31.4925 8.75075C30.7045 8.6265 29.9138 8.51997 29.121 8.43125C26.6685 8.13725 24.2265 7.8455 22.0837 6.53525L20.556 5.6ZM16.5 11.75V17H11.25V20H16.5V25.25H19.5V20H24.75V17H19.5V11.75H16.5Z" fill="#0578C7"/>
</g>
</g>
<path d="M56.3562 24H54.0072V16.9692L51.9822 21.3432H49.941L47.916 16.9854V24H45.5832V12.66H48.078L50.9778 18.735L54.0072 12.66H56.3562V24ZM66.4375 24H64.1047L63.2947 21.2298H59.8765L59.0827 24H56.8309L60.2329 12.66H63.0031L66.4375 24ZM62.8573 19.3668L61.6099 14.7012L60.3463 19.3668H62.8573ZM75.7866 24H73.1622L71.0886 20.031L68.934 24H66.3258L69.9222 18.0384L66.666 12.66H69.339L71.1372 15.9972L73.0164 12.66H75.6084L72.3036 18.0384L75.7866 24ZM77.8437 24L75.8025 15.9H77.8761L79.0263 21.9102L80.3709 15.9H82.3797L83.7405 21.975L84.8583 15.9H86.9319L84.9231 24H82.6065L81.3753 18.573L80.1279 24H77.8437ZM94.1645 23.4978C93.1385 23.8974 92.1881 24.0972 91.3133 24.0972C88.7753 24.0972 87.5063 22.7256 87.5063 19.9824C87.5063 18.5892 87.8141 17.5362 88.4297 16.8234C89.0453 16.0998 89.9417 15.738 91.1189 15.738C92.0909 15.738 92.8685 16.0404 93.4517 16.6452C94.0349 17.25 94.3265 18.1464 94.3265 19.3344C94.3265 19.8096 94.3049 20.2254 94.2617 20.5818H89.5799C89.5799 21.219 89.7527 21.6888 90.0983 21.9912C90.4439 22.2936 90.9083 22.4448 91.4915 22.4448C92.0747 22.4448 92.8469 22.3152 93.8081 22.056L94.1645 23.4978ZM92.3015 19.0914V18.978C92.3015 18.4812 92.1935 18.0816 91.9775 17.7792C91.7615 17.4768 91.4213 17.3256 90.9569 17.3256C90.4925 17.3256 90.1469 17.493 89.9201 17.8278C89.6933 18.1626 89.5745 18.5838 89.5637 19.0914H92.3015ZM98.3946 24H96.2886V12.66H98.3946V24ZM103.283 24H101.177V12.66H103.283V24Z" fill="#0578C7"/>
<defs>
<clipPath id="clip0_406_556">
<rect width="36" height="36" fill="white" transform="translate(0 0.5)"/>
</clipPath>
</defs>
</svg>
